<svg
  width="640"
  height="160"
  viewBox="0 0 170.31250000000003 170.31250000000003"
>
  <g
    featurekey="rootContainer"
    transform="matrix(1.7031250000000002,0,0,1.7031250000000002,0,0)"
    fill="#fff"
  >
    <circle xmlns="http://www.w3.org/2000/svg" cx="50" cy="50" r="50"></circle>
  </g>
  <g
    featurekey="symbolFeature-0"
    transform="matrix(1.0000079155594817,0,0,1.0000079155594817,60.82514271610693,18.976905067741455)"
    fill="#111"
  >
    <g xmlns="http://www.w3.org/2000/svg">
      <path
        d="M44.139,18.234c-0.306-1.215-2.564-1.814-5.987-1.834v-1.9c0-1.37-1.107-2.477-2.478-2.477H14.017   c-1.367,0-2.475,1.107-2.475,2.477v7.909c-4.796,2.116-7.725,4.324-7.332,5.89c0.652,2.592,10.122,2.439,21.149-0.34   C36.386,25.179,44.791,20.824,44.139,18.234z M12.952,14.431c0-0.477,0.385-0.862,0.858-0.862h22.415   c0.476,0,0.855,0.385,0.855,0.862v8.341c-3.029,1.516-7.22,3.037-11.963,4.232c-0.061,0.016-0.119,0.028-0.179,0.043H13.811   c-0.474,0-0.858-0.386-0.858-0.859V14.431z M6.12,27.309c-0.32-1.275,1.813-3.026,5.422-4.755v5.97c0,0.153,0.032,0.296,0.06,0.439   C8.465,28.954,6.398,28.41,6.12,27.309z M38.151,22.209v-5.536c2.2,0.171,3.613,0.696,3.836,1.593   C42.259,19.341,40.78,20.754,38.151,22.209z"
      ></path>
      <path d="M13.947,14.085c0,0-0.412,0-0.412,0.827v9.55c0.192-6.008,4.55-10.376,4.55-10.376H13.947z"></path>
      <path
        d="M37.081,26.188c0,0.474-0.38,0.859-0.855,0.859h-5.329c-1.744,0.561-3.553,1.088-5.377,1.549   c-0.117,0.029-0.23,0.053-0.348,0.082c0.134,0.102,0.225,0.252,0.225,0.428c0,0.306-0.246,0.552-0.551,0.552   c-0.306,0-0.552-0.246-0.552-0.552c0-0.082,0.021-0.16,0.06-0.229c-4.146,0.984-8.101,1.616-11.474,1.835   C13.222,30.888,13.604,31,14.017,31h7.527v1.563l3.853,0.535h-3.93c-0.072,0.171-0.2,0.32-0.369,0.417l-1.822,0.989h11.14   l-1.819-0.989c-0.278-0.152-0.449-0.444-0.449-0.76V31h7.527c1.37,0,2.478-1.107,2.478-2.477v-4.286   c-0.348,0.166-0.701,0.327-1.07,0.487V26.188z"
      ></path>
      <path
        d="M13.535,24.462c0,0.088,0,0.145,0,0.145s0.008-0.045,0.024-0.128C13.551,24.473,13.54,24.467,13.535,24.462z"
      ></path>
    </g>
  </g>
  <g
    featurekey="nameFeature-0"
    transform="matrix(2.3489980395744663,0,0,2.3489980395744663,30.302004480895842,46.15471519169392)"
    fill="#111"
  >
    <path
      d="M2 40 l0 -5.7143 l2.2857 0 l0 -17.143 l-2.2857 0 l0 -5.7143 l12 0 l0 5.7143 l-2.2857 0 l0 17.143 l2.2857 0 l0 5.7143 l-12 0 z M18.857142857142858 40 l0 -3.4286 l7.8857 -10.857 l-7.8857 -10.857 l0 -3.4286 l6.5714 0 l6.2857 9.1429 l6.2857 -9.1429 l6.5714 0 l0 3.4286 l-7.8857 10.857 l7.8857 10.857 l0 3.4286 l-6.5714 0 l-6.2857 -9.1429 l-6.2857 9.1429 l-6.5714 0 z"
    ></path>
  </g>
</svg>
